# xmcd
#
# Track frame offsets: 
#        150
#        5853
#        25545
#        42856
#        66269
#        88546
#        106106
#        127388
#        147279
#        164183
#        188707
#        209367
#        233268
#        254577
#        275606
#
# Disc length: 3987 seconds
#
# Revision: 0
# Processed by: cddbd v1.5.2PL0 Copyright (c) Steve Scherf et al.
# Submitted via: ExactAudioCopy v0.95b4
#
DISCID=d80f910f
DTITLE=Jackers - Down 4 Life
DYEAR=2000
DGENRE=Rap
TTITLE0=In The Air (Intro)
TTITLE1=Down 4 Life Feat. Mr. Doctor
TTITLE2=Bang Bang Feat. Mr. Doctor
TTITLE3=Heaven Feat. Loonatic
TTITLE4=In The Air
TTITLE5=Back To The Hood Feat. Ynvee
TTITLE6=Thuggin'
TTITLE7=Don't Get High
TTITLE8=Jackers
TTITLE9=I Miss Your Pussy
TTITLE10=Can't Fix It
TTITLE11=10 Til' Midnight
TTITLE12=Broke Niggaz Feat. Loonatic
TTITLE13=Heaven Feat. Loonatic (Remix)
TTITLE14=10 Til' Midnight (Unplugged)
EXTD=
EXTT0=
EXTT1=
EXTT2=
EXTT3=
EXTT4=
EXTT5=
EXTT6=
EXTT7=
EXTT8=
EXTT9=
EXTT10=
EXTT11=
EXTT12=
EXTT13=
EXTT14=
PLAYORDER=
